<svg id="Layer_1" data-name="Layer 1" xmlns="http://www.w3.org/2000/svg" viewBox="0 0 900 900"><defs><style>.cls-1{fill:#121315;}</style></defs><title>logo-02</title><path class="cls-1" d="M450,697.62A248,248,0,1,1,625.36,625,246.37,246.37,0,0,1,450,697.62Zm0-480a232,232,0,1,0,164,68A230.49,230.49,0,0,0,450,217.62Z"/><path class="cls-1" d="M620.56,417.35a45.38,45.38,0,0,0-64.56,0l-13.89,13.89-27.78-27.78,13.89-13.9c21.65-21.65,21.65-42.9,0-64.55a45.38,45.38,0,0,0-64.56,0L450.18,338.9h0L436.29,325c-21.66-21.66-42.9-21.66-64.56,0a45.37,45.37,0,0,0,0,64.55l13.89,13.9h0l-27.78,27.78h0L344,417.35a45.65,45.65,0,1,0,0,64.55L357.84,468l27.78,27.78h0l-13.89,13.9c-21.65,21.65-21.65,42.9,0,64.55a45.38,45.38,0,0,0,64.56,0l13.89-13.89-2.45-2.45h0l2.45,2.45,13.89,13.89c21.65,21.66,42.9,21.66,64.56,0a45.38,45.38,0,0,0,0-64.55l-13.9-13.9L542.52,468l13.89,13.89a45.5,45.5,0,1,0,64.15-64.55ZM326,463.52a19.65,19.65,0,1,1,0-27.79l13.89,13.9ZM482.46,343.8a19.48,19.48,0,0,1,27.78,0c9.4,9.4,9.4,18.39,0,27.79l-13.89,13.89L468.56,357.7h0Zm-32.28,32.28L478,403.86h0l-27.78,27.38L422.4,403.46ZM390.12,343.8c9.39-9.39,18.38-9.39,27.78,0l13.89,13.9L404,385.48l-13.89-13.89C382.76,363.82,382.76,351.16,390.12,343.8ZM376.63,449.62l27.79-27.78,27.78,27.78h0l-27.78,27.79ZM417.9,555.45a19.48,19.48,0,0,1-27.78,0c-9.4-9.4-9.4-18.39,0-27.79L404,513.77l27.78,27.78Zm32.28-32.28L422.4,495.39l27.78-27.79L478,495.39Zm60.06,32.28c-9.4,9.39-18.39,9.39-27.78,0l-13.9-13.9,27.79-27.78,13.89,13.89C517.59,535.43,517.59,548.09,510.24,555.45Zm-13.89-78-27.79-27.79,27.79-27.78,27.37,27.78Zm105.82-13.89a19.48,19.48,0,0,1-27.78,0l-13.49-13.9,13.89-13.89a19.5,19.5,0,0,1,27.79,0A19.87,19.87,0,0,1,602.17,463.52Z"/></svg>