<svg id="Layer_1" data-name="Layer 1" xmlns="http://www.w3.org/2000/svg" viewBox="0 0 900 900"><defs><style>.cls-1{fill:#121315;}</style></defs><title>logo-01</title><path class="cls-1" d="M620.58,417.35a45.37,45.37,0,0,0-64.55,0l-13.9,13.89-27.78-27.78,13.89-13.9c21.66-21.65,21.66-42.9,0-64.55a45.37,45.37,0,0,0-64.55,0L450.2,338.9h0L436.31,325c-21.65-21.66-42.9-21.66-64.55,0a45.37,45.37,0,0,0,0,64.55l13.89,13.9h0l-27.78,27.78h0L344,417.35a45.64,45.64,0,1,0,0,64.55L357.87,468l27.78,27.78h0l-13.89,13.9c-21.66,21.65-21.66,42.9,0,64.55a45.37,45.37,0,0,0,64.55,0l13.89-13.89-2.45-2.45h0l2.45,2.45,13.9,13.89c21.65,21.66,42.9,21.66,64.55,0a45.37,45.37,0,0,0,0-64.55l-13.89-13.9L542.54,468l13.89,13.89a45.5,45.5,0,1,0,64.15-64.55ZM326,463.52a19.65,19.65,0,1,1,0-27.79l13.89,13.9ZM482.48,343.8a19.5,19.5,0,0,1,27.79,0c9.39,9.4,9.39,18.39,0,27.79l-13.9,13.89L468.59,357.7h0ZM450.2,376.08,478,403.86h0L450.2,431.24l-27.78-27.78ZM390.14,343.8c9.4-9.39,18.39-9.39,27.79,0l13.89,13.9L404,385.48l-13.9-13.89C382.79,363.82,382.79,351.16,390.14,343.8ZM376.66,449.62l27.78-27.78,27.79,27.78h0l-27.79,27.79Zm41.27,105.83a19.5,19.5,0,0,1-27.79,0c-9.39-9.4-9.39-18.39,0-27.79L404,513.77l27.78,27.78Zm32.27-32.28-27.78-27.78L450.2,467.6,478,495.39Zm60.07,32.28c-9.4,9.39-18.39,9.39-27.79,0l-13.89-13.9,27.78-27.78,13.9,13.89C517.62,535.43,517.62,548.09,510.27,555.45Zm-13.9-78-27.78-27.79,27.78-27.78,27.38,27.78ZM602.2,463.52a19.5,19.5,0,0,1-27.79,0l-13.48-13.9,13.89-13.89a19.48,19.48,0,0,1,27.78,0A19.87,19.87,0,0,1,602.2,463.52Z"/></svg>