<svg id="Layer_1" data-name="Layer 1" xmlns="http://www.w3.org/2000/svg" viewBox="0 0 900 900"><defs><style>.cls-1{fill:#121315;}</style></defs><title>logo-04</title><path class="cls-1" d="M232.15,448.37l1.12,11.35L240,462l.43,4.31L211,456l26.92-15.45.44,4.37Zm-3.6,2-8.63,4.83,9.43,3.23Z"/><path class="cls-1" d="M215.63,421.36l1.88,3.29a5.54,5.54,0,0,0-2.1,1.71,4,4,0,0,0-.59,2.22,4.11,4.11,0,0,0,.9,2.79,2.92,2.92,0,0,0,2.33,1.14c1.3,0,2.36-.92,3.19-2.84l1.13-2.64a11.33,11.33,0,0,1,3.28-4.7,7.2,7.2,0,0,1,4.65-1.42,8.15,8.15,0,0,1,6,2.55,8.42,8.42,0,0,1,2.31,6.16,8.19,8.19,0,0,1-2.15,5.7,9.45,9.45,0,0,1-5.82,2.68l-.83-4.08a7,7,0,0,0,3.26-.92,4.18,4.18,0,0,0,1.78-3.59,4.24,4.24,0,0,0-1.2-3.15,4.38,4.38,0,0,0-3.18-1.29,4.32,4.32,0,0,0-1.42.19,3.68,3.68,0,0,0-1.2.65,5.22,5.22,0,0,0-1,1.17,11.22,11.22,0,0,0-.94,1.71l-1.11,2.55q-2.4,5.43-6.85,5.36a6.4,6.4,0,0,1-5-2.37,8.32,8.32,0,0,1-1.95-5.75Q211.09,423.88,215.63,421.36Z"/><path class="cls-1" d="M225,415.2a13,13,0,0,1-9-5.47,13.56,13.56,0,0,1-2.57-10.36,13.93,13.93,0,0,1,15.72-11.7,13.11,13.11,0,0,1,9.05,5.47,14.07,14.07,0,0,1-2.34,19.09A13.08,13.08,0,0,1,225,415.2Zm.64-4a9.63,9.63,0,0,0,7.62-1.89,9.84,9.84,0,0,0,2-13.75,10.36,10.36,0,0,0-14.14-2.1,9.93,9.93,0,0,0-2,13.88A9.59,9.59,0,0,0,225.62,411.2Z"/><path class="cls-1" d="M225.07,358.46l4.57,1.33a11.17,11.17,0,0,0-4.81,6.11,9.15,9.15,0,0,0,.9,7.47,9.94,9.94,0,0,0,6.1,4.73,9.73,9.73,0,0,0,7.58-.74,9.36,9.36,0,0,0,4.71-5.86,8.53,8.53,0,0,0,.34-3.66,9.71,9.71,0,0,0-.41-1.9,20.16,20.16,0,0,0-.84-2.2l4.66,1.36a14.64,14.64,0,0,1-.15,7.5,13.37,13.37,0,0,1-6.56,8.25A13.21,13.21,0,0,1,230.73,382a13.7,13.7,0,0,1-7.78-5.77,13.42,13.42,0,0,1-1.69-11.65A13.63,13.63,0,0,1,225.07,358.46Z"/><path class="cls-1" d="M228.06,346.87l24.84,9.65-1.45,3.75-24.84-9.65Z"/><path class="cls-1" d="M256.54,333.09l-5.06,10.22,4.48,5.53L254,352.72l-19.53-24.38,31,1.17-1.95,3.94Zm-4.11-.21-9.87-.48,6.28,7.73Z"/><path class="cls-1" d="M256.53,297.2l4,2.59a11.2,11.2,0,0,0-6.38,4.47,9.17,9.17,0,0,0-1.29,7.41,10,10,0,0,0,4.48,6.28,9.74,9.74,0,0,0,7.47,1.48,9.35,9.35,0,0,0,6.2-4.25,8.48,8.48,0,0,0,1.38-3.4,10.69,10.69,0,0,0,.16-1.95,23,23,0,0,0-.17-2.34l4.07,2.64a14.66,14.66,0,0,1-2.31,7.14,13.41,13.41,0,0,1-8.66,6,13.21,13.21,0,0,1-10.32-1.91,13.69,13.69,0,0,1-5.78-7.77A13.36,13.36,0,0,1,251.12,302,13.64,13.64,0,0,1,256.53,297.2Z"/><path class="cls-1" d="M262.77,286.93l21,16.4-2.48,3.17-21-16.4Z"/><path class="cls-1" d="M276.51,260.84l-1.45,8.37-2.49.27-.15-7.85Zm.74,28.57a13.06,13.06,0,0,1-4.09-9.68,13.6,13.6,0,0,1,3.94-9.91,13.94,13.94,0,0,1,19.6-.35,13.13,13.13,0,0,1,4.17,9.72,14.08,14.08,0,0,1-13,14.15A13.13,13.13,0,0,1,277.25,289.41Zm2.86-2.89A9.87,9.87,0,0,0,297,279.39a10.34,10.34,0,0,0-10.26-9.94,9.94,9.94,0,0,0-9.74,10.1A9.6,9.6,0,0,0,280.11,286.52Z"/><path class="cls-1" d="M310.34,275.27l-17.28-22.6L320.84,257,309.59,242.3l3.19-2.44L330,262.31,302.2,258l11.34,14.82Z"/><path class="cls-1" d="M351.07,220.15l2.13,4.26a11.17,11.17,0,0,0-7.76.61,9.17,9.17,0,0,0-4.87,5.73,10,10,0,0,0,.67,7.69,9.72,9.72,0,0,0,5.69,5.07,9.38,9.38,0,0,0,7.49-.52,8.5,8.5,0,0,0,2.92-2.23,9.77,9.77,0,0,0,1.12-1.6,18.65,18.65,0,0,0,1.05-2.1l2.16,4.34a14.56,14.56,0,0,1-5.61,5,13.37,13.37,0,0,1-10.51.78,13.17,13.17,0,0,1-7.92-6.88,13.65,13.65,0,0,1-1.05-9.62A13.42,13.42,0,0,1,344,221.5,13.57,13.57,0,0,1,351.07,220.15Z"/><path class="cls-1" d="M362.28,214.16l5.35,15.13a8.79,8.79,0,0,0,2.73,4.36,6,6,0,0,0,8.9-3.15c.36-1.21.16-2.92-.62-5.11l-5.35-15.13,3.79-1.34,5.72,16.17a9.6,9.6,0,0,1-.16,7.42A10.15,10.15,0,0,1,369,237.34a9.58,9.58,0,0,1-4.78-5.67l-5.73-16.17Z"/><path class="cls-1" d="M390.23,205.48l5.42,22.22,7.61-1.86.9,3.67-11.52,2.81-6.32-25.88Z"/><path class="cls-1" d="M410.36,205.25l3.78,22.55-4,.67-3.79-22.55-6,1-.62-3.73,16-2.69.62,3.73Z"/><path class="cls-1" d="M426.65,199.4l1,16a8.85,8.85,0,0,0,1.42,4.94,6,6,0,0,0,9.42-.56q1-1.61.82-5.08l-1-16,4-.24,1,17.12a9.57,9.57,0,0,1-2.2,7.08,10.14,10.14,0,0,1-14.45.87,9.6,9.6,0,0,1-3-6.77l-1-17.12Z"/><path class="cls-1" d="M460.37,214.37,468,226.18,463,225.9l-7-11.33-.72,0-.63,10.89-4-.23,1.53-26.6,4.7.27q5.28.3,7.5,2.42a7.28,7.28,0,0,1,2.25,6,7.55,7.55,0,0,1-1.9,4.76A7.22,7.22,0,0,1,460.37,214.37ZM455.55,211l1.28.08c3.8.21,5.78-1.13,5.95-4,.15-2.72-1.62-4.18-5.32-4.4l-1.42-.08Z"/><path class="cls-1" d="M488.89,223l-11.23-2-4.05,5.86-4.26-.75,17.91-25.59,7.59,30.09-4.33-.76Zm-.95-4-2.32-9.61-5.65,8.2Z"/><path class="cls-1" d="M509.69,207.44l-6.29,22,7.53,2.16-1,3.63L498.49,232l7.33-25.62Z"/><path class="cls-1" d="M524.13,240l17.62-23.27-.88,22.62,17.61-14.44-8.06,27.94-3.7-1.81,4.75-15.58-14.68,12.09.72-18.93-9.64,13.21Z"/><path class="cls-1" d="M573.69,236.34l-9,13.26a8.85,8.85,0,0,0-1.9,4.78,6,6,0,0,0,7.8,5.32q1.8-.65,3.75-3.52l9-13.27,3.32,2.26L577,259.35a9.63,9.63,0,0,1-6.07,4.26,10.14,10.14,0,0,1-12-8.15,9.56,9.56,0,0,1,1.73-7.21l9.66-14.18Z"/><path class="cls-1" d="M603.21,264.16l-3.73-.67a5.54,5.54,0,0,0,0-2.7,4,4,0,0,0-1.32-1.88,4.07,4.07,0,0,0-2.72-1.09,2.91,2.91,0,0,0-2.37,1.05c-.85,1-.81,2.41.14,4.27l1.3,2.56a11.39,11.39,0,0,1,1.5,5.53,7.25,7.25,0,0,1-1.89,4.48,8.15,8.15,0,0,1-5.83,3,8.38,8.38,0,0,1-6.21-2.18,8.2,8.2,0,0,1-3-5.3,9.44,9.44,0,0,1,1.68-6.19l3.67,2a6.8,6.8,0,0,0-1.39,3.08,4.19,4.19,0,0,0,1.61,3.68,4.24,4.24,0,0,0,3.19,1.09,4.4,4.4,0,0,0,3-1.61,4.56,4.56,0,0,0,.76-1.22,3.34,3.34,0,0,0,.27-1.34,5.23,5.23,0,0,0-.23-1.54,10.84,10.84,0,0,0-.71-1.81l-1.25-2.49c-1.75-3.56-1.65-6.45.29-8.7a6.42,6.42,0,0,1,5-2.3,8.29,8.29,0,0,1,5.66,2.19Q604.18,259.08,603.21,264.16Z"/><path class="cls-1" d="M615.07,270.31l-11.82,10.86a8.91,8.91,0,0,0-2.94,4.22,6,6,0,0,0,6.39,6.95q1.89-.21,4.46-2.57L623,278.92l2.72,3-12.63,11.6a9.57,9.57,0,0,1-6.88,2.76,10.13,10.13,0,0,1-9.79-10.66,9.53,9.53,0,0,1,3.33-6.62l12.63-11.61Z"/><path class="cls-1" d="M610.28,305.29l21.58-15.62,2.35,3.24a18,18,0,0,1,2.16,3.7,6.44,6.44,0,0,1,.46,3,7.29,7.29,0,0,1-1,2.93,7.69,7.69,0,0,1-2.12,2.37,6.28,6.28,0,0,1-5.21,1.06,6.43,6.43,0,0,1-.09,4.2,7.2,7.2,0,0,1-2.66,3.46,7.09,7.09,0,0,1-5.57,1.3,7.3,7.3,0,0,1-3.25-1.33,17.5,17.5,0,0,1-3.06-3.39Zm5.42,1,1.45,2a6.15,6.15,0,0,0,3.22,2.62,3.72,3.72,0,0,0,3.16-.63,3.76,3.76,0,0,0,1.59-2.75c.13-1.13-.43-2.57-1.7-4.32l-1.2-1.65Zm9.25-6.7.74,1a4.58,4.58,0,0,0,2.73,2.08,3.84,3.84,0,0,0,3-.86,3.69,3.69,0,0,0,1.69-2.54,4.45,4.45,0,0,0-1-3.09l-.82-1.15Z"/><path class="cls-1" d="M647.35,312.59,624.6,326.45,622.51,323l22.75-13.86Z"/><path class="cls-1" d="M645.69,354.7l-4.45-10.51-7.12-.21-1.68-4,31.21,1.11-21.12,22.75-1.72-4.06Zm2.84-3,6.8-7.17-10-.29Z"/><path class="cls-1" d="M670,363.16l-25.3,8.35-1.26-3.82,25.3-8.35Z"/><path class="cls-1" d="M663.3,378.47,676,386.16l1.21,5.23-14.48-9-11.45,15.1-1.22-5.24,9.37-12-1-.62-10.73,2.5-.92-3.92,26-6,.91,3.92Z"/><path class="cls-1" d="M678.63,401.84l-26.36,3.84-.58-4,26.36-3.84Z"/><path class="cls-1" d="M653.31,412.62l26.6-1.46.31,5.58a20.29,20.29,0,0,1-.45,6.38,11.72,11.72,0,0,1-2.39,4.68,13.76,13.76,0,0,1-19.8.91,12.34,12.34,0,0,1-2.88-4.37,20.39,20.39,0,0,1-1.09-6.21Zm4,3.8.1,1.81a15,15,0,0,0,.82,4.47,9.16,9.16,0,0,0,9.3,5.71,9.29,9.29,0,0,0,6.94-3.32q2.28-2.77,2-7.9l-.1-1.81Z"/><path class="cls-1" d="M668,438.34a13,13,0,0,1,9.27,4.94,13.56,13.56,0,0,1,3.18,10.18,13.93,13.93,0,0,1-15,12.62,13.08,13.08,0,0,1-9.36-4.93,14.06,14.06,0,0,1,1.2-19.19A13.08,13.08,0,0,1,668,438.34Zm-.4,4A9.87,9.87,0,0,0,659,458.56a10.33,10.33,0,0,0,14.23,1.25,9.37,9.37,0,0,0,3.49-6.73,9.47,9.47,0,0,0-2.29-7.24A9.58,9.58,0,0,0,667.58,442.38Z"/><path class="cls-1" d="M446,695.61A261.74,261.74,0,1,1,548.2,675,260.72,260.72,0,0,1,446,695.61Zm0-512a248.93,248.93,0,1,0,97.17,19.63A248.27,248.27,0,0,0,446,183.61Z"/><path class="cls-1" d="M446,631.21c-109.17,0-198-88.82-198-198s88.83-198,198-198,198,88.82,198,198S555.22,631.21,446,631.21Zm0-384c-102.56,0-186,83.44-186,186s83.44,186,186,186,186-83.44,186-186S548.6,247.21,446,247.21Z"/><path class="cls-1" d="M575.75,408.66a34.51,34.51,0,0,0-49.09,0l-10.57,10.57L495,398.1l10.57-10.56c16.47-16.47,16.47-32.63,0-49.1a34.52,34.52,0,0,0-49.1,0L446.18,349h0l-10.57-10.57C419.15,322,403,322,386.52,338.44a34.52,34.52,0,0,0,0,49.1l10.57,10.56h0L376,419.23h0l-10.57-10.57a34.72,34.72,0,1,0,0,49.1L376,447.19l21.13,21.13h0l-10.57,10.57c-16.47,16.47-16.47,32.62,0,49.09a34.51,34.51,0,0,0,49.09,0l10.57-10.56-1.87-1.87h0l1.87,1.87L456.74,528c16.47,16.47,32.63,16.47,49.1,0a34.51,34.51,0,0,0,0-49.09l-10.57-10.57,21.13-21.13L527,457.76a34.61,34.61,0,1,0,48.78-49.1Zm-224,35.12a14.94,14.94,0,1,1,0-21.13l10.56,10.56Zm119-91a14.82,14.82,0,0,1,21.13,0c7.14,7.15,7.14,14,0,21.13l-10.57,10.57L460.16,363.3h0Zm-24.55,24.55,21.13,21.13h0l-21.13,20.82L425.05,398.1ZM400.5,352.73c7.15-7.14,14-7.14,21.13,0L432.2,363.3l-21.13,21.13L400.5,373.86C394.91,368,394.91,358.33,400.5,352.73Zm-10.25,80.48,21.13-21.13,21.13,21.13h0l-21.13,21.13Zm31.38,80.48a14.82,14.82,0,0,1-21.13,0c-7.14-7.15-7.14-14,0-21.13L411.07,482l21.13,21.13Zm24.55-24.55L425.05,468l21.13-21.13L467.31,468Zm45.68,24.55c-7.15,7.15-14,7.15-21.13,0l-10.57-10.57L481.29,482l10.57,10.57C497.45,498.46,497.45,508.1,491.86,513.69Zm-10.57-59.35-21.13-21.13,21.13-21.13,20.82,21.13Zm80.48-10.56a14.82,14.82,0,0,1-21.13,0l-10.26-10.57L541,422.65a14.81,14.81,0,0,1,21.13,0A15.11,15.11,0,0,1,561.77,443.78Z"/><path class="cls-1" d="M664.29,489.9l-5.46-1.35,1.36-5.46,5.45,1.36Z"/><path class="cls-1" d="M640.44,509.94l1.59-3.78q1.83.84,5.25,2.28c.47-1.46,1-3.1,1.48-4.91l3.41,1.05c-.4,1.4-.93,3.14-1.57,5.23l.23.1,4.18,1.72q4,1.7,2.49,5.26a18.62,18.62,0,0,1-1.47,2.56,31.26,31.26,0,0,1-2.16,3l-3-2.16a17.78,17.78,0,0,0,2.64-3.77.91.91,0,0,0,.06-.81,2.49,2.49,0,0,0-1.08-.67l-3.1-1.3c-.77,2.38-1.76,5.24-3,8.57q5,2,7.62,3.14a10.15,10.15,0,0,0,1.68.59,3.31,3.31,0,0,0,1.2.07,1.73,1.73,0,0,0,1-.66,8.48,8.48,0,0,0,.91-1.4c.29-.56.65-1.34,1.08-2.35a63,63,0,0,0,2.91-8.59l3.61,1.17a70.71,70.71,0,0,1-3.13,9.09q-2.25,5.34-4.51,6.55c-1.51.82-3.66.63-6.44-.54q-4.87-2.05-7.47-3.08-1,2.55-1.85,4.66l-3.28-1.38c.58-1.37,1.19-2.9,1.82-4.57l-5.33-2.07,1.65-3.93q3.63,1.38,5.19,2c1.18-3.31,2.18-6.19,3-8.63Q641.39,510.37,640.44,509.94Z"/><path class="cls-1" d="M641.23,563.14l-3.52-.57a22.76,22.76,0,0,0,.62-8.27l-.08,0L635.93,558l1.61.88a47.71,47.71,0,0,1-1,9.48l-3.41-1.49c.29-1.49.45-2.35.49-2.58l-8.14-5-1.2,2-2.92-1.8,1.2-2L616.86,554l2-3.32,5.72,3.52,1.21-1.95,2.91,1.79-1.2,2,6.68,4.11c.11-1,.19-1.73.23-2.21l-1.65-1,4.61-7.48-1.07-.66-2.19,3.55-1.91,3.11-7-4.32,4.1-6.66-1.07-.66-4.53,7.34L621,549.36l4.52-7.34L623.77,541l2.21-3.57,1.7,1.05,4.58-7.43,2.78,1.71-4.58,7.43,1.08.66,4.13-6.71,7,4.32-4.14,6.71,1.07.66,4.66-7.56,2.78,1.71-1.2,1.95,2.31-.92a30.42,30.42,0,0,1,1.33,4.31,19.13,19.13,0,0,0,3.64-2.28l2,3.08a16.55,16.55,0,0,1-8.47,3.71l2.53,1.25a70.92,70.92,0,0,1-4.43,11.5l-2.92-1.42c.79-1.61,1.35-2.82,1.67-3.64l-1.81-1.11A29.7,29.7,0,0,1,641.23,563.14ZM632.87,549l-2.34-1.44-1.1,1.78,2.34,1.45Zm2.71-4.4-2.34-1.45-1.08,1.77,2.34,1.44Zm1.63-2.64,1.1-1.79L636,538.72l-1.1,1.79Zm9,7.87a17.29,17.29,0,0,1-5.2-.12l-.59,1,.14.33a2.49,2.49,0,0,1,.12.36l4.18,2.58C645.25,552.94,645.7,551.58,646.24,549.83Zm.06-3.6a18.59,18.59,0,0,0-1-3.37l-2.1,3.41A11,11,0,0,0,646.3,546.23Z"/><path class="cls-1" d="M599.09,581.77A204.25,204.25,0,0,0,614.5,561.1l3.17,2.25q-3.74,5.65-4.12,10t2.12,6.47a5.78,5.78,0,0,0,5.41,1.23,14.09,14.09,0,0,0,6.5-4.22l2.73,2.93q-4.51,4.78-9.09,5.77a8.74,8.74,0,0,1-8-1.9,8.93,8.93,0,0,1-2.73-4.32,11.94,11.94,0,0,1-.18-5.79l-.05,0a113.24,113.24,0,0,1-8.14,10.94Z"/><path class="cls-1" d="M577.33,597.53a49.09,49.09,0,0,0,16.16,19l-3,3.15a52.69,52.69,0,0,1-16.78-19.74Zm7.55-7.74,3.2-2.72q1.33,1.57,4.22,4.56,1.77-1.8,3.53-3.77l2.54,2.63c-1.19,1.33-2.38,2.59-3.56,3.8.73.76,1.42,1.52,2.06,2.27a24.4,24.4,0,0,1,3.9,5.78,8.68,8.68,0,0,1,.64,4.87,19.72,19.72,0,0,1-2.33,6l-3.7-1.56a24.42,24.42,0,0,0,1.64-3.5,5.91,5.91,0,0,0,.27-2.77,6.83,6.83,0,0,0-1-2.72,33.67,33.67,0,0,0-2.61-3.39c-.4-.47-1-1.16-1.83-2-2.13,2.08-4.38,4.11-6.72,6.11l-2.39-2.81q3.76-3.19,6.58-5.93C587.33,592.54,585.86,590.94,584.88,589.79Z"/><path class="cls-1" d="M547.06,624.06c.49-.44,1.68-1.62,3.59-3.54q1.64-1.68,2.58-2.61c.63-.62,1.47-1.37,2.54-2.23A28.76,28.76,0,0,1,559,613.4c3-1.79,5.63-2.52,8.07-2.19a7.8,7.8,0,0,1,5.77,4,10.67,10.67,0,0,1,1.76,6.4,12.79,12.79,0,0,1-3,6.66,42.79,42.79,0,0,1-8.3,7.74l-2.76-3.23a42.86,42.86,0,0,0,6.8-6.07,10.19,10.19,0,0,0,2.58-4.75,6.06,6.06,0,0,0-.94-4.15,4.1,4.1,0,0,0-3.29-2.11,8.4,8.4,0,0,0-4.9,1.53,26.07,26.07,0,0,0-2.92,2.09,30.24,30.24,0,0,0-2.31,2.1c-.58.59-1.36,1.41-2.36,2.47-1.65,1.71-2.75,2.84-3.28,3.36Z"/><path class="cls-1" d="M541.14,646.09l.39-.15.43-.15.44-.2.44-.2a6,6,0,0,0,.53-.29l.34-.23a.39.39,0,0,0,.19-.35,3.84,3.84,0,0,1,0-.48,3,3,0,0,0-.17-.77l-.33-1c-.12-.34-.29-.82-.53-1.44l3.87-1.14c.43,1.22.75,2.15,1,2.79a8.58,8.58,0,0,1,.4,1.94,4.75,4.75,0,0,1,0,1.39,2.34,2.34,0,0,1-.67,1,4.29,4.29,0,0,1-1.22.87c-.43.2-1.09.5-2,.89-.14,0-.36.15-.66.29l-.7.3-.65.25-.67.27a9.4,9.4,0,0,1-3.57.92c-.55-.08-1-.62-1.43-1.59l-2.33-5.65-2.29,1q1.7,7-7.35,12.88l-2.44-2.87q6.6-4.15,5.81-8.37l-1.34.55L522.68,648l-7.2-17.47,21.09-8.69,7.21,17.47-5.68,2.34,1.6,3.88c.18.44.34.69.48.73A1.86,1.86,0,0,0,541.14,646.09Zm-19.64-12,13.27-5.46-.81-2-13.26,5.47Zm1.11,2.69.8,1.94,13.26-5.46-.8-1.94Zm1.91,4.63.8,1.94,13.26-5.46-.8-1.94Z"/><path class="cls-1" d="M496.19,653l-1.33-5.47,5.47-1.32,1.32,5.46Z"/><path class="cls-1" d="M472.57,649.8l.19,2.25-17.91,1.48-.18-2.26q-2.21,1.65-4.33,3l-1.93-3.31A57.47,57.47,0,0,0,460.15,641l5.34-.44a57.27,57.27,0,0,0,13.19,7.83L477.32,652Q475,651.06,472.57,649.8Zm.94,8.71q3.38,5.16,5.46,8.76L475.38,669l-.81-1.35-.81-1.37q-10.54,2.22-21.18,3.46l-.47-3.43c1.9-.25,3.38-.44,4.42-.59q1.5-3.43,2.5-6.34l-8.28.68-.29-3.48,27.12-2.23.29,3.48L463.47,659q-1,3.12-2.23,6,5.73-.9,10.64-1.88c-.62-1-1.23-2-1.83-2.93Zm-2.7-9.67a52.83,52.83,0,0,1-7.77-5.36,54.34,54.34,0,0,1-6.79,6.56Z"/><path class="cls-1" d="M438.1,656.15l5.41.41q-.25,3.42-.45,5.57c-.14,1.44-.29,2.69-.47,3.76s-.33,1.86-.47,2.38a3,3,0,0,1-.6,1.22,1.31,1.31,0,0,1-.73.49,4.24,4.24,0,0,1-1,0c-.73-.05-2.17-.21-4.31-.48l.08-2.75A12.65,12.65,0,0,1,433,670l-2.29-2.7a2.8,2.8,0,0,1-.87,1.59,2.54,2.54,0,0,1-1.51.24q-.9-.07-4.11-.48l.08-2.75a12.52,12.52,0,0,1-2.51,3.25l-2.2-2.69-.18,2.41-4.06-.31,1.43-18.78-2.26-.17.27-3.48,2.25.17.48-6.35,4.06.31-.48,6.35,2.64.2-.24,3.16c3.21-.69,5.44-1.94,6.7-3.77l-5.44-.41.26-3.42,6.54.5a18.31,18.31,0,0,0,.31-2.38l4.12.31a20.44,20.44,0,0,1-.3,2.38l8,.61c-.13,1.72-.26,3.11-.37,4.18a23,23,0,0,1-.46,2.85,10.73,10.73,0,0,1-.54,1.82,1.86,1.86,0,0,1-.82.91,2.46,2.46,0,0,1-1.1.38,11.85,11.85,0,0,1-1.5,0l-.64,0C438.23,654.89,438.16,655.66,438.1,656.15ZM423.41,655c.06-.56.14-1.47.24-2.74l.9.07-1.36-2.12-2.32-.17-1.22,16a10.51,10.51,0,0,0,2.16-3.08,18.07,18.07,0,0,0,1.22-4.64l-1.78-.13.26-3.32Zm1.3,10.07q1.44.24,2.19.3a.66.66,0,0,0,.41-.07,1.84,1.84,0,0,0,.28-.79,13.56,13.56,0,0,0,.28-1.95c.07-.84.18-2.13.31-3.87l-1.71-.12A24,24,0,0,1,424.71,665.11Zm9.81-9.23c.06-.49.13-1.3.22-2.42-.28,0-.74-.07-1.38-.17l0-3.36q3.3.41,4.17.48a1.38,1.38,0,0,0,.85-.13,1.56,1.56,0,0,0,.4-.9,24.91,24.91,0,0,0,.29-2.52l-4.45-.34q-2,4.26-7.54,6.24c-.09,1.16-.16,2-.22,2.54l5.18.39a98.11,98.11,0,0,1-1.2,11.09,9.83,9.83,0,0,0,2.06-3,18.77,18.77,0,0,0,1.18-4.57l-1.61-.13.25-3.32ZM435.89,666c1,.16,1.72.26,2.28.31a.6.6,0,0,0,.43-.1,1.93,1.93,0,0,0,.3-.79,15.28,15.28,0,0,0,.3-2c.09-.87.19-2.14.32-3.81l-1.83-.14A24.42,24.42,0,0,1,435.89,666Z"/><path class="cls-1" d="M390.54,642.83l-4.67,19.62-4.12-1,3.33-14a25.41,25.41,0,0,1-3.93,3l-.94-4.3a27.65,27.65,0,0,0,6.29-5,31.63,31.63,0,0,0,4.82-7.09l3.6,1.49A30,30,0,0,1,390.54,642.83Zm6.82-6.71,4.11,1-2.13,9a50,50,0,0,0,9.89-4l1.8,3.45a53,53,0,0,1-12.69,4.75l-2.06,8.64a3.76,3.76,0,0,0-.19,1.44c.05.18.33.35.82.51s1.2.38,1.9.55,1.26.27,2,.37a1.51,1.51,0,0,0,1.69-.83,58.44,58.44,0,0,0,2-6.65l3.79,1.37q-.74,2.64-1.2,4.2a26.74,26.74,0,0,1-1,2.81,10.89,10.89,0,0,1-.91,1.81,2.89,2.89,0,0,1-1,.87,2.57,2.57,0,0,1-1.23.32,12.56,12.56,0,0,1-1.64-.15,30.86,30.86,0,0,1-3.21-.6c-1.15-.28-2.21-.56-3.18-.86-1.76-.53-2.8-1.1-3.11-1.72s-.24-1.93.24-4Z"/><path class="cls-1" d="M353,624.1l11,4.51,1.64-4,4,1.65-1.65,4,11,4.51-1.38,3.38-3.77-1.55q-5.7,6.74-11.14,9.08a43.74,43.74,0,0,0,8.53,8.4l-2.49,2.85a43.74,43.74,0,0,1-9.9-10q-5.53,1.23-14.07.16l.22-3.78a41.69,41.69,0,0,0,12,0,28.57,28.57,0,0,1-1.76-12.14l4.06.51a24.22,24.22,0,0,0,1.45,10.48q4.31-1.86,9-7.25l-18-7.39Z"/><path class="cls-1" d="M320,613.89l6.34,3.82-5.19,8.61a4.9,4.9,0,0,0,.61,2.61,10.42,10.42,0,0,0,2.58,2.6,68.61,68.61,0,0,0,6.13,4l7.42,4.47-2,2.82-7.22-4.36a51.35,51.35,0,0,1-7.77-5.44,9,9,0,0,1-2.91-4.44,40.33,40.33,0,0,1-5.63.64l.09-3.83a39.47,39.47,0,0,0,4.79-.43l3.84-6.37-2.91-1.75Zm9.52-.94,1.73-2.87,3.71,2.23a25.84,25.84,0,0,0,.11-2.69l3.64,1.22c0,1.37,0,2.58-.13,3.66l3.49,2.1c1.3-.77,2.3-1.41,3-1.92l2.95,2.61c-.87.61-1.64,1.11-2.31,1.52l3.6,2.17-1.74,2.87-7.28-4.39-1.13,1.13,6.36,3.84-8.06,13.36-11.95-7.21-3.43-2.07,8.06-13.36,5.26,3.17,1.13-1.13Zm-.09.89-3.56.72q-.65-3.39-1.72-7.79l3.66-.69Q328.73,610.13,329.39,613.84Zm-1.59,12.89-.87,1.44,8.41,5.08.87-1.44Zm2.1-3.48-.82,1.36,8.41,5.07.82-1.36Zm1.32-2.19,8.41,5.08.8-1.33L332,619.74Z"/><path class="cls-1" d="M291.17,598.84l3.43-.82a70.44,70.44,0,0,1,2.12,7,37,37,0,0,0,6-.43l.59,3.62a35.24,35.24,0,0,1-5.76.52q.53,2.34,1.19,6.57l-3.59.4c-.48-3-.92-5.36-1.3-7.08a38.69,38.69,0,0,1-10.13-2.06l.67-3.57a40.17,40.17,0,0,0,8.56,1.83Q292.22,602,291.17,598.84Zm3-8.58a30.57,30.57,0,0,0,11.41-4.44l2.47,3.14c-.42.29-.92.61-1.52,1l14.15,11.88-2.18,2.6-15.24-12.8c-.27.11-.88.36-1.84.73L316,604.51l-1.94,2.3L299.24,594.4l1.52-1.8a32.66,32.66,0,0,1-4.91,1.27l15.41,13-.79.94a44.15,44.15,0,0,0-3.61,4.88,17.43,17.43,0,0,0-1.78,3.42c-.25.78-.27,1.25-.07,1.42s.23,0,.45-.11a15.39,15.39,0,0,0,1.48-1.29c.77-.71,1.87-1.81,3.3-3.28l2.26,2.74a42.64,42.64,0,0,1-5.2,5,7,7,0,0,1-3.14,1.61,3.1,3.1,0,0,1-2.22-.83c-1.33-1.13-1.72-2.93-1.18-5.43s2.28-5.57,5.19-9.23L293.33,596l1.89-2.25Z"/><path class="cls-1" d="M263.61,582l-1.12,1-2.77-3.2,10.37-9L285,588l-10.38,9-2.77-3.2,1.12-1Zm11.87,8.7,4.22-3.67-9.4-10.84-4.22,3.67Zm11.62-7.86-1.59,1.38-11.6-13.38,1.59-1.38q-2.17-.63-4.6-1.6l1.53-3.51A54,54,0,0,0,287,567.65l3.51,4.05a53.86,53.86,0,0,0,1.18,14.93l-3.69,1C287.63,586,287.31,584.36,287.1,582.86Zm-.28-2.24a49.23,49.23,0,0,1-.05-9.19,49.35,49.35,0,0,1-9.09-1.35Z"/><path class="cls-1" d="M256.4,562.26a30.91,30.91,0,0,1,0,5.18l-1.68-.25,1.06,1.7-2.64,1.64-15-24.2,2.64-1.64,1,1.68.61-1.64a13,13,0,0,0,4.68,1.69l-2.36-3.78,2-1.25L261.37,565l-2,1.24-2.5-4h-.23Zm-10.64-13a12.13,12.13,0,0,1-2.86-1l2.63,4.23A24.7,24.7,0,0,0,245.76,549.24Zm2.73.36a26.47,26.47,0,0,1-.38,4.53l-1.68-.25.84,1.35,3.79-2.36L249,549.58a1,1,0,0,1-.27,0A.93.93,0,0,1,248.49,549.6Zm.76-5.5-1.5-2.41L252,539l4.13,6.64-4.25,2.65ZM255,559.16,253,556l-3.79,2.36.82,1.31.62-1.64A11.32,11.32,0,0,0,255,559.16Zm-4.06-16.08,1.13,1.81,1-.6-1.13-1.81Zm2.77,19a13.47,13.47,0,0,1-2.59-.74l2.64,4.25A29.77,29.77,0,0,0,253.67,562.09Zm.43-10.2-1.5-2.41,4.25-2.65,4.13,6.64-4.25,2.65Zm11.51,6,3.65-2.27-4.35-7-4.45,2.77-1.94-3.13,4.44-2.76-4.35-7L255,540.74l-2.08-3.35,5.57-3.46,6.44,10.34.79-.49-5.77-9.28,2.58-1.6L276,554.57l-2.58,1.61-5.76-9.28-.8.5,6.43,10.34-5.57,3.47Zm-10.77-15.67,1.56-1,3.12,5-1.56,1Zm.91,8.68,1.12,1.81,1-.6-1.12-1.81Zm1.28-10,1.57-1,3.12,5-1.57,1ZM259,559.69l-1.51-2.42,4.26-2.65,4.13,6.65-4.26,2.64Zm1.64-1,1.13,1.81,1-.59-1.13-1.82Zm.54-6.35,1.57-1,3.12,5-1.56,1Zm2.2-1.36,1.56-1,3.13,5-1.57,1Z"/><path class="cls-1" d="M234,529.34l3.46,8.19-3.15,1.33-9.22-21.78,3.15-1.34,4.12,9.73,2.26-1-2.58-6.1,2.41-1c-1-.21-1.89-.46-2.8-.75l.57-2.38a22.85,22.85,0,0,1-8.91.51l2-4.12a20.75,20.75,0,0,0,6.21-.57,57.47,57.47,0,0,0,8.43-3l2.23-.94,2.2,5.21,2.22-1.89-1.94-4.58,3.06-1.3L252,513.72l2.52-1.07,1.69,4-2.53,1.08,4.23,10-3.06,1.3-1.65-3.9c-.92,0-1.92,0-3,0l2.35,5.57L249.48,532l-8.79-20.76-1.91.8c-1.54.66-3,1.2-4.39,1.65a22,22,0,0,0,7.29.63l.7,3.57L241,518l1.39,3.27,1.4-.6,1.63,3.87-1.39.6,3.08,7.29-3,1.24-3.08-7.29-2,.83,2.73,6.43L239,534.81l-2.72-6.43Zm1.07-11.82,2.44,5.77,2-.83-1.95-4.61A19,19,0,0,1,235.05,517.52Zm13.4,3.49c.94.07,2,.09,3.05.08l-3.2-7.56c-.86.73-1.6,1.35-2.23,1.85Z"/><path class="cls-1" d="M226.93,485.36l5.45-1.38,1.38,5.46-5.45,1.37Z"/></svg>