<svg id="Layer_1" data-name="Layer 1" xmlns="http://www.w3.org/2000/svg" viewBox="0 0 900 900"><defs><style>.cls-1{opacity:0.9;}.cls-2,.cls-3{fill:#121315;}.cls-3{stroke:#221f1f;stroke-miterlimit:10;}</style></defs><title>logo-00-children</title><g class="cls-1"><path class="cls-2" d="M374.46,386.12a2.55,2.55,0,0,1-.73,1.77,2.17,2.17,0,0,1-1.53.59,2.5,2.5,0,0,1-1.29-.38,2.54,2.54,0,0,1-1-1.18,33.32,33.32,0,0,0-.73-4.15c-.33-1.35-.75-2.73-1.25-4.15-2,0-4,0-5.94.05s-4,.05-6,.05h-.09c-.38,1.32-.73,2.58-1.06,3.79s-.64,2.51-.92,3.89a3.21,3.21,0,0,1-1,1.51,2.09,2.09,0,0,1-1.32.47,2.31,2.31,0,0,1-1.72-.77,2.15,2.15,0,0,1-.45-2.06,129.49,129.49,0,0,1,3.68-13.15,86.79,86.79,0,0,1,5.47-12.68l-.05,0a2.1,2.1,0,0,1,1.65-1.28h-.05a2.18,2.18,0,0,1,2.27.47,20,20,0,0,1,2.19,2.53c.67.92,1.3,1.88,1.88,2.87s1.13,2,1.63,3,1,2,1.41,2.87q.44.9.9,2t.9,2.19l1.13,0,1.13,0a3.1,3.1,0,0,1,1.46.9,1.87,1.87,0,0,1,.47,1.22,1.84,1.84,0,0,1-.52,1.25,2.84,2.84,0,0,1-1.6.83h-.57A40.07,40.07,0,0,1,374.46,386.12Zm-10.89-17.73c-.37-.69-.76-1.38-1.15-2.07s-.78-1.3-1.16-1.84q-1.12,2.4-2.09,4.88c-.65,1.65-1.28,3.37-1.91,5.16,1.6,0,3.13,0,4.59,0s3-.05,4.6-.05c-.38-.91-.77-1.78-1.18-2.59s-.82-1.69-1.22-2.6Z"/><path class="cls-2" d="M398.73,383.67l.9,0,.89-.08h.19a2.79,2.79,0,0,1,2.1.56,2,2,0,0,1,.73,1.45,1.9,1.9,0,0,1-.54,1.26,3.07,3.07,0,0,1-1.68.84c-.56,0-1.15,0-1.74,0h-8a3,3,0,0,1-1.74-.79,1.87,1.87,0,0,1-.57-1.3,1.85,1.85,0,0,1,.62-1.38,2.93,2.93,0,0,1,1.84-.68c.47,0,.87,0,1.2,0s.71,0,1.15,0V363.63h-2.54a3,3,0,0,1-1.75-.79,1.94,1.94,0,0,1-.56-1.35,1.78,1.78,0,0,1,.61-1.33,3,3,0,0,1,1.84-.68h9.76a3.21,3.21,0,0,1,1.48.91,1.85,1.85,0,0,1,.5,1.19,1.77,1.77,0,0,1-.55,1.24,3,3,0,0,1-1.62.81h-2.5Z"/><path class="cls-2" d="M423.23,385.84a2.18,2.18,0,0,1-.78,1.74,2.47,2.47,0,0,1-1.53.57,2.6,2.6,0,0,1-1.58-.54,2.29,2.29,0,0,1-.87-1.63c0-2,0-4,0-6s0-4,0-6.06,0-4.06,0-6.13,0-4.2,0-6.36a2.55,2.55,0,0,1,.87-1.49,2.34,2.34,0,0,1,1.49-.49,2.4,2.4,0,0,1,1.39.47,2.34,2.34,0,0,1,.92,1.41v5.09q0,1.27,0,2.31c0,.7,0,1.5,0,2.41a16.65,16.65,0,0,0,4.57-3.37q2-2.1,3.68-4.13c.34-.5.72-1,1.13-1.55a19.56,19.56,0,0,1,1.37-1.61,3,3,0,0,1,2-.8,2.29,2.29,0,0,1,1.58.57,1.81,1.81,0,0,1,.63,1.41,4,4,0,0,1-.23,1l-1.46,1.7a17.93,17.93,0,0,0-1.28,1.6c-1.1,1.32-2.13,2.55-3.11,3.68a19.86,19.86,0,0,1-3.39,3.11l2.35,2.54,4.06,4.32q2,2.1,4,4.36a3.19,3.19,0,0,1,.85,1.84,1.77,1.77,0,0,1-.61,1.39,2.28,2.28,0,0,1-1.56.54,3.35,3.35,0,0,1-1-.16,2.23,2.23,0,0,1-.95-.64c-.15-.19-.42-.49-.8-.9l-1.32-1.41c-.5-.54-1.06-1.12-1.67-1.77s-1.24-1.3-1.86-2-1.24-1.3-1.82-1.93-1.12-1.2-1.63-1.72l-1.27-1.34c-.35-.38-.6-.66-.75-.85-.26.09-.49.17-.71.23s-.5.16-.85.29c0,.72,0,1.52,0,2.4s0,1.78.05,2.69,0,1.81.05,2.71S423.2,385.11,423.23,385.84Z"/><path class="cls-2" d="M464.42,383.67l.9,0,.89-.08h.19a2.79,2.79,0,0,1,2.1.56,2,2,0,0,1,.73,1.45,1.9,1.9,0,0,1-.54,1.26,3.07,3.07,0,0,1-1.68.84c-.56,0-1.15,0-1.74,0h-8a3,3,0,0,1-1.74-.79,1.87,1.87,0,0,1-.57-1.3,1.85,1.85,0,0,1,.62-1.38,2.92,2.92,0,0,1,1.83-.68c.48,0,.88,0,1.21,0s.71,0,1.15,0V363.63h-2.54a3,3,0,0,1-1.75-.79,1.9,1.9,0,0,1-.56-1.35,1.78,1.78,0,0,1,.61-1.33,3,3,0,0,1,1.84-.68h9.76a3.21,3.21,0,0,1,1.48.91,1.85,1.85,0,0,1,.5,1.19,1.77,1.77,0,0,1-.55,1.24,3,3,0,0,1-1.62.81h-2.5Z"/><path class="cls-2" d="M488.54,388.76a2.88,2.88,0,0,1-2.17-1.22l-.14-.29a2.58,2.58,0,0,1-.33-1.08V365.74a1.36,1.36,0,0,1-.42.12,4,4,0,0,1-.57,0,2.51,2.51,0,0,1-1.7-.57,1.7,1.7,0,0,1-.66-1.32,2.22,2.22,0,0,1,1.23-1.86,12,12,0,0,1,3-1.29,20.63,20.63,0,0,1,3.56-.75,24.27,24.27,0,0,1,3.06-.24,16.19,16.19,0,0,1,6.22,1.13,13.48,13.48,0,0,1,4.6,3,13.11,13.11,0,0,1,2.85,4.44,14.69,14.69,0,0,1-.09,10.83,13.68,13.68,0,0,1-3.21,4.75,12,12,0,0,1-3.27,2.19,22.16,22.16,0,0,1-3.8,1.32,33.64,33.64,0,0,1-4,.75c-1.39.18-2.71.32-4,.45ZM493.3,364a10.28,10.28,0,0,0-1.34.09l-1.39.19v20.09c.85-.1,1.74-.22,2.69-.36a25.85,25.85,0,0,0,2.73-.56,14.59,14.59,0,0,0,2.48-.92,6.4,6.4,0,0,0,1.95-1.46,10.58,10.58,0,0,0,2.19-3.61,11.91,11.91,0,0,0,.74-4.13,10.07,10.07,0,0,0-.64-3.53,8.33,8.33,0,0,0-1.91-3,9.54,9.54,0,0,0-3.16-2A11.28,11.28,0,0,0,493.3,364Z"/><path class="cls-2" d="M548.78,375.65a24.77,24.77,0,0,1-1.2,3.47,23,23,0,0,1-1.87,3.49,17,17,0,0,1-2.5,3,9.84,9.84,0,0,1-3.11,2.07,29.74,29.74,0,0,1-2.85.95,10.93,10.93,0,0,1-2.85.37,8.62,8.62,0,0,1-2.48-.37c-.83-.26-1.67-.52-2.52-.81a8.68,8.68,0,0,1-3.32-2.05,11.2,11.2,0,0,1-2.17-3,14.5,14.5,0,0,1-1.2-3.56,19.36,19.36,0,0,1-.38-3.77c0-.44,0-.9,0-1.37s.08-.93.14-1.37a17,17,0,0,1,.87-3.18,22.74,22.74,0,0,1,1.56-3.37,21.15,21.15,0,0,1,2.07-3.07,12.46,12.46,0,0,1,2.43-2.31,13.58,13.58,0,0,1,3.56-1.65,14,14,0,0,1,3.93-.56,12.36,12.36,0,0,1,6.13,1.6,11.83,11.83,0,0,1,4.58,4.57A12.06,12.06,0,0,1,548.8,368a16.12,16.12,0,0,1,.36,3.35c0,.72,0,1.44-.1,2.17S548.9,374.93,548.78,375.65Zm-10.69,8.4a9.83,9.83,0,0,0,2.92-2.36,14.75,14.75,0,0,0,2-3.18,16.07,16.07,0,0,0,1.18-3.59,18,18,0,0,0,.37-3.56,13.14,13.14,0,0,0-.23-2.42,9.34,9.34,0,0,0-.76-2.29,7.35,7.35,0,0,0-3-3,8.31,8.31,0,0,0-4-1,6.87,6.87,0,0,0-2.35.41,9,9,0,0,0-2.16,1.1,10.24,10.24,0,0,0-2.19,2.34,16.5,16.5,0,0,0-1.62,2.94,18.21,18.21,0,0,0-1,3.19,14.85,14.85,0,0,0-.35,3.08,13.12,13.12,0,0,0,.47,3.52,8.62,8.62,0,0,0,1.46,2.94,7.19,7.19,0,0,0,2.47,2,7.78,7.78,0,0,0,3.55.75,6.27,6.27,0,0,0,1.67-.23A7.66,7.66,0,0,0,538.09,384.05Z"/></g><path class="cls-2" d="M300.87,504.51a10.26,10.26,0,0,1-2.26,5.31,9.83,9.83,0,0,1-4.24,3,7.76,7.76,0,0,1-4.95.07,7.52,7.52,0,0,1-4.25-3.75,11.64,11.64,0,0,1-1.62-5c-.15-1.74-.31-3.56-.5-5.45-.19-2.07-.4-3.89-.63-5.44s-.5-3.37-.78-5.45q-1.27-8.47-2.83-16.76t-3.54-16.62q-2.83,7.08-5.37,14t-5.09,14q-2,5.24-3.89,10.54a87.43,87.43,0,0,1-4.46,10.25,6.41,6.41,0,0,1-2.83,2.76,10.11,10.11,0,0,1-4.24,1.2,9.82,9.82,0,0,1-4.24-.64,5.49,5.49,0,0,1-3-2.61q-6.09-11.74-12-23.34t-11.88-23.34q-.71,7.22-1.27,14.5t-1.27,14.5c-.1,1.51-.19,3.35-.29,5.51s-.26,4.37-.49,6.58-.52,4.34-.85,6.37a12,12,0,0,1-1.63,4.73,7.79,7.79,0,0,1-4.45,3.68,9.5,9.5,0,0,1-5.38.14,8.32,8.32,0,0,1-4.38-2.9,8.05,8.05,0,0,1-1.63-5.58q.28-5.81,1-11.46t1.28-11.46q1.13-12.58,2.33-25t2.33-25.18a24,24,0,0,1,1.49-6.79q1.2-3.11,5.16-4.38a7.43,7.43,0,0,1,3.25-.42,7.15,7.15,0,0,1,3.12,1,13.79,13.79,0,0,1,4.88,5.45q1.75,3.47,3.32,6.58,2.68,5.09,5.23,10.25t5.09,10.26q3.12,6.5,6.3,12.8T248,479.05c.56-1.41,1.1-2.82,1.62-4.24s1.06-2.83,1.63-4.24q1.54-3.68,2.9-7.43c.89-2.49,1.81-5,2.76-7.42q2-4.82,3.74-9.48t3.47-9.48c.94-2.35,1.84-4.9,2.69-7.63a16.35,16.35,0,0,1,4.1-6.93,7.79,7.79,0,0,1,4.31-2.55,8.2,8.2,0,0,1,4.39.35,9.38,9.38,0,0,1,3.67,2.62,11.1,11.1,0,0,1,2.34,4.24q.84,3.25,2,7.36c.75,2.73,1.41,5.19,2,7.35q1.54,5.94,2.83,11.67t2.4,11.67q2,9.76,3.47,19.31t2.61,19.3Z"/><path class="cls-2" d="M366.49,427.15a10.62,10.62,0,0,1,2.76-4.67,9.16,9.16,0,0,1,4.17-2.4,7.66,7.66,0,0,1,4.6.28,8.29,8.29,0,0,1,4,3.39,9.72,9.72,0,0,1,1.06,1.7,4.15,4.15,0,0,1,.5,1.84c0,1-.05,2.78-.14,5.23s-.17,5-.22,7.5-.12,4.81-.21,6.79-.14,3-.14,3.11q-.28,7.63-1,15.2t-2,15.21a101.68,101.68,0,0,1-2.69,11A32.5,32.5,0,0,1,373,500.2a26.47,26.47,0,0,1-6.79,6.72A34.09,34.09,0,0,1,356,511.44a29.16,29.16,0,0,1-5,1,46.6,46.6,0,0,1-5,.29A41.88,41.88,0,0,1,331.56,510,24,24,0,0,1,319,499.28,53.14,53.14,0,0,1,313,482.52a99.53,99.53,0,0,1-1.63-18.74q.08-9.48.07-16.69c0-2,0-4,.07-6s.12-4,.22-6c0-1.42,0-2.9.14-4.46a16.79,16.79,0,0,1,.85-4.45,9.65,9.65,0,0,1,2.19-3.68,7.82,7.82,0,0,1,4.17-2.12,6.9,6.9,0,0,1,3.33.28,10.88,10.88,0,0,1,3.18,1.63,10.18,10.18,0,0,1,2.4,2.54,5.64,5.64,0,0,1,1,3.19v6c0,.7,0,1.44-.07,2.19s-.07,1.74-.07,3q-.28,9.33-.28,18.6a149.84,149.84,0,0,0,1.13,18.46c.28,2.54.71,5.18,1.27,7.92a15.52,15.52,0,0,0,3.4,7.07,11.81,11.81,0,0,0,5.87,3.75,18.42,18.42,0,0,0,7.35.63,20.4,20.4,0,0,0,7.07-2.12,13.14,13.14,0,0,0,5.17-4.52,22.72,22.72,0,0,0,2.82-6.65,60.6,60.6,0,0,0,1.49-7.92q.49-4.11.71-8.14c.14-2.68.25-5.16.35-7.42q.28-4,.42-6.79c.1-1.89.19-4.15.29-6.79q.13-3,.14-5.94t.14-5.94Z"/><path class="cls-2" d="M401.7,498.29a11.07,11.07,0,0,1-.63-5.37,9.23,9.23,0,0,1,1.84-4.6,7.87,7.87,0,0,1,3.89-2.69,7.51,7.51,0,0,1,5.37.5,12.44,12.44,0,0,1,4.6,3.32,13.94,13.94,0,0,0,4.59,3.47,32.39,32.39,0,0,0,7.5,2.68,29.59,29.59,0,0,0,5.37.92q2.68.21,5.52.21c1.41-.37,2.64-.75,3.68-1.13a9.83,9.83,0,0,0,3.39-2.4,8.38,8.38,0,0,0,2.76-4.39,10.16,10.16,0,0,0,0-5,11.08,11.08,0,0,0-2.4-4.52,8.63,8.63,0,0,0-4.32-2.76,71,71,0,0,0-9.9-2.62c-3.3-.61-6.5-1.34-9.62-2.19a39,39,0,0,1-8.84-3.61,26.64,26.64,0,0,1-7.7-6.71,13,13,0,0,1-2.55-4.25c-.38-1.22-.8-2.78-1.27-4.67Q401.71,445.68,404,441a36.25,36.25,0,0,1,5.87-8.49A31.64,31.64,0,0,1,420.16,425a41,41,0,0,1,12-3.39,44.61,44.61,0,0,1,12.73.28,51,51,0,0,1,12.24,3.61,7,7,0,0,1,4.31,4.38,9.73,9.73,0,0,1,.07,5.8,9,9,0,0,1-3.25,4.67,6.94,6.94,0,0,1-5.66,1.27q-3.39-.7-6.36-1.48t-5.94-1.35a17.1,17.1,0,0,0-4.88-.14,32.2,32.2,0,0,0-4.95.92,43,43,0,0,0-4.32,1.42,10.76,10.76,0,0,0-3,1.62,13.56,13.56,0,0,0-2.19,2.55,7,7,0,0,0-1.2,3.54,4.06,4.06,0,0,0,1.84,4,14.64,14.64,0,0,0,4.52,2.26q4.66,1,9.62,1.91a71.09,71.09,0,0,1,9.76,2.54,44.92,44.92,0,0,1,9,4.18,23.75,23.75,0,0,1,7.14,6.79,22.08,22.08,0,0,1,4.67,8.34A25.5,25.5,0,0,1,467.4,488a28.47,28.47,0,0,1-2.19,9,23.87,23.87,0,0,1-5.09,7.56,29.82,29.82,0,0,1-4.74,3.89q-2.47,1.64-5.31,3.18a25.64,25.64,0,0,1-12.16,3,46.08,46.08,0,0,1-13-1.9,53.36,53.36,0,0,1-12.31-5.38,50.78,50.78,0,0,1-9.9-7.57Z"/><path class="cls-2" d="M539.74,427.15a10.53,10.53,0,0,1,2.76-4.67,9.16,9.16,0,0,1,4.17-2.4,7.66,7.66,0,0,1,4.6.28,8.33,8.33,0,0,1,4,3.39,10.36,10.36,0,0,1,1.06,1.7,4.12,4.12,0,0,1,.49,1.84c0,1-.05,2.78-.14,5.23s-.16,5-.21,7.5-.12,4.81-.21,6.79-.14,3-.14,3.11q-.28,7.63-1,15.2t-2,15.21a101.68,101.68,0,0,1-2.69,11,32.5,32.5,0,0,1-4.24,8.91,26.62,26.62,0,0,1-6.79,6.72,34,34,0,0,1-10.19,4.52,28.78,28.78,0,0,1-5,1,46.42,46.42,0,0,1-5,.29A42,42,0,0,1,504.8,510a24,24,0,0,1-12.58-10.75,53.14,53.14,0,0,1-5.94-16.76,99.53,99.53,0,0,1-1.63-18.74q.08-9.48.07-16.69,0-3,.07-6t.21-6c0-1.42.05-2.9.15-4.46a17.19,17.19,0,0,1,.84-4.45,9.67,9.67,0,0,1,2.2-3.68,7.82,7.82,0,0,1,4.17-2.12,6.87,6.87,0,0,1,3.32.28,10.63,10.63,0,0,1,3.18,1.63,10,10,0,0,1,2.41,2.54,5.64,5.64,0,0,1,1,3.19v6c0,.7,0,1.44-.07,2.19s-.07,1.74-.07,3q-.28,9.33-.29,18.6A149.85,149.85,0,0,0,503,476.23q.42,3.81,1.27,7.92a15.5,15.5,0,0,0,3.39,7.07A11.9,11.9,0,0,0,513.5,495a18.48,18.48,0,0,0,7.36.63,20.53,20.53,0,0,0,7.07-2.12,13.11,13.11,0,0,0,5.16-4.52,22.46,22.46,0,0,0,2.83-6.65,62.31,62.31,0,0,0,1.49-7.92q.5-4.11.7-8.14c.14-2.68.26-5.16.36-7.42.18-2.64.33-4.9.42-6.79s.19-4.15.28-6.79q.15-3,.15-5.94c0-2,0-4,.14-5.94Z"/><path class="cls-2" d="M585.56,511.58c-4.06-.47-6.53-1.81-7.43-4a10.44,10.44,0,0,1-.07-7.28V442.85a6.94,6.94,0,0,1-4-1.21,9.15,9.15,0,0,1-2.83-3,8,8,0,0,1-1.06-4,7,7,0,0,1,1.27-4,20.23,20.23,0,0,1,7.29-6.65A55.76,55.76,0,0,1,603,417.25,32.25,32.25,0,0,1,618,420.36a27.67,27.67,0,0,1,10.46,8.06A23.92,23.92,0,0,1,633.22,439a22.86,22.86,0,0,1-1,11.45,28.42,28.42,0,0,1-7.07,11,25.07,25.07,0,0,1,9.48,10.11A23.22,23.22,0,0,1,637,483.58a27.44,27.44,0,0,1-4,12,33.19,33.19,0,0,1-9.41,10,26,26,0,0,1-8.27,3.89,59.33,59.33,0,0,1-9.76,1.91,88.35,88.35,0,0,1-10,.57c-3.3,0-6.32-.1-9.05-.28Zm9.76-57.7h5.09a25.51,25.51,0,0,0,5-.5,20.2,20.2,0,0,0,4.81-1.62,13.15,13.15,0,0,0,4.17-3.26,6.73,6.73,0,0,0,1.91-6.29,8.32,8.32,0,0,0-4-5.3,15.31,15.31,0,0,0-8.35-2.48,29.66,29.66,0,0,0-8.62,1.06Zm20.36,21.78a21.37,21.37,0,0,0-9.83-3.68,29.94,29.94,0,0,0-5-.14c-1.69.1-3.53.19-5.51.28v22.63c2.07,0,4.29-.07,6.64-.21a32,32,0,0,0,6.79-1.13,24.78,24.78,0,0,0,6.08-2.62,12.59,12.59,0,0,0,4.53-4.66,17.06,17.06,0,0,0-.14-5.87A8.13,8.13,0,0,0,615.68,475.66Z"/><path class="cls-2" d="M690.21,493.34a9.68,9.68,0,0,1,6.09,2.19,9.39,9.39,0,0,1,3.11,4.74,7.58,7.58,0,0,1-5.09,9.33,21.56,21.56,0,0,1-6,1.28,67,67,0,0,1-6.93.21c-2.32,0-4.46-.14-6.44-.28s-3.49-.22-4.53-.22h-8.34A8.13,8.13,0,0,1,657,509a9.16,9.16,0,0,1-3-3.89,8.25,8.25,0,0,1-.43-4.81,9,9,0,0,1,2.62-4.67,8.12,8.12,0,0,1,5.23-2.26,37.25,37.25,0,0,1,6.51,0v-56q-3.25,0-6.08-.07a10.28,10.28,0,0,1-5.66-2.05,7.53,7.53,0,0,1-2.83-3.61,7.18,7.18,0,0,1-.21-4.1,10.24,10.24,0,0,1,1.91-3.89,8.34,8.34,0,0,1,3.53-2.69,10.41,10.41,0,0,1,4.1-.84q7.22,0,14.5-.08t14.64.08a2.38,2.38,0,0,1,1.34.42,7.55,7.55,0,0,0,1.35.71,9.16,9.16,0,0,1,4.38,5.23,7.61,7.61,0,0,1-.85,6.65,7.31,7.31,0,0,1-2.47,2.61,9.77,9.77,0,0,1-3.25,1.28,19,19,0,0,1-3.61.35h-3.54v56.29c.76,0,1.44,0,2-.07s1.3-.12,2.05-.21Z"/><path class="cls-3" d="M739.76,370.61a9.16,9.16,0,0,1-2.86-.86,7.49,7.49,0,0,1-2.35-1.9,6.72,6.72,0,0,1-1.14-2.92h-.21a4.55,4.55,0,0,1-2.29.83,6.35,6.35,0,0,1-3.65-1.87,6.17,6.17,0,0,1-1.48-2.29,8,8,0,0,1-.44-2.71,5.4,5.4,0,0,1,1.4-2.81,5.62,5.62,0,0,1,4.48-1.25l1.56.52v-3l-.1-.52H727l-1.35.1a1.94,1.94,0,0,1-1.1-1V350a1.94,1.94,0,0,1,1.1-1l1.35-.21h5.52v-2.29l-.1-1.87a6.71,6.71,0,0,1,.93-3,1.74,1.74,0,0,1,1.36-.31,1.9,1.9,0,0,1,1,1v1a8.37,8.37,0,0,0-.31,3l.1,2.5h.84l2.81-.11a2,2,0,0,1,1,1.05v.83a1.93,1.93,0,0,1-1,1l-3.44.21v.31l.1.11V357l-.31,2.92c.21,1.11.4,2.26.58,3.44a6.09,6.09,0,0,0,1.4,3.12,5.29,5.29,0,0,0,3.54,1,10.21,10.21,0,0,0,2.56-.72,5.79,5.79,0,0,0,2.13-1.67,7.19,7.19,0,0,1,.94-2,1.72,1.72,0,0,1,1.35-.31,2.2,2.2,0,0,1,1.15,1.25v1.14a8,8,0,0,1-2.4,3.13,7.32,7.32,0,0,1-3.23,1.72A22,22,0,0,1,739.76,370.61Zm-8.43-8.08a4.73,4.73,0,0,0,.93-2.91,3.18,3.18,0,0,0-1.56-1.77h-1l-1.15.93-.1.94a5.17,5.17,0,0,0,1.14,2.19,3,3,0,0,0,1.67.73Zm22-2.81a1.86,1.86,0,0,1-1-1,27.82,27.82,0,0,0-1.67-3.85,12.14,12.14,0,0,1-1.3-4,1.84,1.84,0,0,1,1-1h.83a2.33,2.33,0,0,1,1.3,1.35c.49,1.25,1,2.47,1.62,3.65a12.85,12.85,0,0,1,1.2,3.75,1.88,1.88,0,0,1-1.15,1.14Z"/><path class="cls-3" d="M740.28,417.14l-1.14-.67a1.74,1.74,0,0,1-.31-1.36l2.29-2.29a6.77,6.77,0,0,0,1.66-2.71l.73-2.71h-.21a6.93,6.93,0,0,1-2.29,1.41,6.35,6.35,0,0,1-2.71.37,5.22,5.22,0,0,1-3.54-1.57,5.59,5.59,0,0,1-1.56-4,6.76,6.76,0,0,1,4.43-4.89,8.33,8.33,0,0,1,3-.31,6.11,6.11,0,0,1,3,1.25v-3.55h-2.71l-.11.11h-4.58c-1.32.07-2.65.16-4,.26s-2.72.16-4.11.16a1.93,1.93,0,0,1-1.05-1.05v-.83a1.91,1.91,0,0,1,1.05-1l8.12-.52h4.58l2.5-.11v-.62a20.46,20.46,0,0,0-.57-2.63,13.54,13.54,0,0,1-.47-2.63,1.93,1.93,0,0,1,1-1h.84l1,.93,1.15,5.89h3.54l1.87-.1a1.84,1.84,0,0,1,1,1v.83a1.86,1.86,0,0,1-1,1l-5.1.21a26,26,0,0,1,0,3.65,22.53,22.53,0,0,1-.58,3.43,11.55,11.55,0,0,1,.52,4.69,14.61,14.61,0,0,1-1.19,4.12,12.5,12.5,0,0,1-2.56,3.59A4.63,4.63,0,0,1,740.28,417.14Zm.73-11.71a3.79,3.79,0,0,0,1.57-2.5,3.9,3.9,0,0,0-3.75-1.46,4.8,4.8,0,0,0-2,1.35l-.63,1.25.73,1.46a3.4,3.4,0,0,0,2.6.62Z"/><path class="cls-3" d="M739.09,460.4a7.14,7.14,0,0,1-2.92-.83,9.65,9.65,0,0,1-2.5-2,7.88,7.88,0,0,1-1.77-3.44,15.23,15.23,0,0,1-.31-4.06c.2-1,.43-2,.67-3a8.77,8.77,0,0,1,1.2-2.76h-1a29.06,29.06,0,0,1-4.43.52,2,2,0,0,1-1-1V443a2,2,0,0,1,1-1c1.56-.14,3.11-.33,4.64-.57a42.08,42.08,0,0,1,4.69-.47,2,2,0,0,1,1,1v.94a15.25,15.25,0,0,0-2.92,4.32,10.9,10.9,0,0,0-.83,5.26,5.58,5.58,0,0,0,2,3.75,4.53,4.53,0,0,0,3,1,6,6,0,0,0,2.91-2.08,12.29,12.29,0,0,0,1.46-3.75,16.82,16.82,0,0,0,.31-4.27,6.88,6.88,0,0,1-.72-2.61,1.9,1.9,0,0,1,1-1h.93a13.72,13.72,0,0,0,3.39,1.83c1.21.45,2.41.95,3.59,1.51a1.72,1.72,0,0,1,.32,1.35,1.91,1.91,0,0,1-1.05,1h-1.25l-3.22-1.14a16.91,16.91,0,0,1-.84,5.93,10.68,10.68,0,0,1-3.44,4.9A8.12,8.12,0,0,1,739.09,460.4Zm16.35-14.9-.73-.41a12.69,12.69,0,0,0-1.33-2.56,6.2,6.2,0,0,1-1-2.65,2.05,2.05,0,0,1,1.09-1h.83a8.81,8.81,0,0,1,2.71,3.85l.32,1.77a1.91,1.91,0,0,1-1.05,1Zm5-2.08-.73-.42a12.88,12.88,0,0,0-1.33-2.55,6.25,6.25,0,0,1-1-2.66,2.13,2.13,0,0,1,1.09-1h.83a8.84,8.84,0,0,1,2.71,3.86l.32,1.77a2,2,0,0,1-1.05,1Z"/></svg>