<svg id="Layer_1" data-name="Layer 1" xmlns="http://www.w3.org/2000/svg" viewBox="0 0 900 900"><defs><style>.cls-1{opacity:0.9;}.cls-2,.cls-3{fill:#121315;}.cls-3{stroke:#121315;stroke-miterlimit:10;stroke-width:0.57px;}</style></defs><title>logo-00-alt</title><g class="cls-1"><path class="cls-2" d="M364.13,372.37c-4.63,1.91-9.23,4-13.76,6.23q0,4.36.06,8.72Q348,388.6,345.51,390a284.65,284.65,0,0,1,1.08-38.73,278.47,278.47,0,0,1,29.05,25.06q-2.62,1-5.23,2Q367.34,375.28,364.13,372.37ZM360.36,369q-4.59-4-9.39-7.83-.42,6.19-.58,12.34Q355.34,371.13,360.36,369Z"/><path class="cls-2" d="M387.41,339q4,15.57,8,31.15c-1.63.42-3.27.86-4.89,1.32q-4.38-15.48-8.75-31C383.66,340,385.53,339.49,387.41,339Z"/><path class="cls-2" d="M416.75,346.27Q422.89,339,429.83,332q3.84-.3,7.7-.48-8.31,7.68-15.58,15.87a216.16,216.16,0,0,1,17.16,16.26q-3.37.15-6.73.41-6.53-6.66-13.84-12.92l-1,1.14,1.83,13.18c-1.66.23-3.32.49-5,.76q-2.6-15.89-5.18-31.75,2.87-.46,5.74-.87Q415.86,339.92,416.75,346.27Z"/><path class="cls-2" d="M461.57,331.54q-.81,16.06-1.64,32.12c-1.67-.08-3.35-.15-5-.19q.43-16.08.89-32.16C457.72,331.36,459.65,331.44,461.57,331.54Z"/><path class="cls-2" d="M479.18,365.52q2.26-15.93,4.52-31.85c2.66.38,5.32.8,8,1.26a30.49,30.49,0,0,1,8.8,2.69,16.77,16.77,0,0,1,5.63,4.56,13.93,13.93,0,0,1,2.6,13,15.4,15.4,0,0,1-8.45,10.23,17.66,17.66,0,0,1-6.32,1.83,30.42,30.42,0,0,1-7.9-.62Q482.6,366,479.18,365.52Zm5.73-3.74,2.28.4a22.42,22.42,0,0,0,5.81.4,12.56,12.56,0,0,0,4.6-1.38,10.91,10.91,0,0,0,5.77-7.4,10.28,10.28,0,0,0-2-9.28c-2-2.45-5.4-4.18-10.18-5l-2.53-.44Q486.79,350.42,484.91,361.78Z"/><path class="cls-2" d="M525.31,360.14a14.2,14.2,0,0,1,9.42-9,21.54,21.54,0,0,1,25.85,11.58,14.38,14.38,0,0,1-.44,13.16,15.79,15.79,0,0,1-10.43,7.77,20.11,20.11,0,0,1-13.7-1.21,19.85,19.85,0,0,1-9.35-8.51A15.94,15.94,0,0,1,525.31,360.14Zm5.18,1.95a11.45,11.45,0,0,0,.54,9.61,13.72,13.72,0,0,0,6.89,6.63,14,14,0,0,0,9.9.8,11.63,11.63,0,0,0,7.39-5.92,10.67,10.67,0,0,0,.33-9.51,15.31,15.31,0,0,0-18.25-8.14A10.54,10.54,0,0,0,530.49,362.09Z"/></g><path class="cls-2" d="M166.68,517.91l16.38-96.51h24.83l19.33,51.45,19.2-51.45h24.83l16.39,96.51h-25l-8.32-55.55-22.79,55.55h-10L200,462.36l-8.32,55.55Z"/><path class="cls-2" d="M332.69,421.4v52.48q0,4.22.32,8.64a23.55,23.55,0,0,0,1.92,8,13.27,13.27,0,0,0,5.06,5.82q3.45,2.24,9.72,2.24c4.18,0,7.41-.75,9.67-2.24a13.84,13.84,0,0,0,5.05-5.82,22.9,22.9,0,0,0,2-8q.31-4.42.32-8.64V421.4h25v55.93q0,22.53-10.31,32.9T349.71,520.6q-21.37,0-31.74-10.37t-10.37-32.9V421.4Z"/><path class="cls-2" d="M469,446.1a31,31,0,0,0-8.19-4.93,22,22,0,0,0-7.94-1.6,12.87,12.87,0,0,0-7.94,2.31,7.18,7.18,0,0,0-3.07,6,6,6,0,0,0,1.54,4.23,13.35,13.35,0,0,0,4,2.88,34.68,34.68,0,0,0,5.63,2.11q3.14.9,6.21,1.92,12.29,4.1,18,10.94T483,487.83a34.65,34.65,0,0,1-2.5,13.44,28,28,0,0,1-7.29,10.3,33.7,33.7,0,0,1-11.78,6.66,49,49,0,0,1-15.81,2.37,58.1,58.1,0,0,1-33.92-10.89l10.76-20.22a43.71,43.71,0,0,0,11.13,7.43,26.8,26.8,0,0,0,10.88,2.43q6.15,0,9.15-2.82a8.71,8.71,0,0,0,2.24-10.17,8.19,8.19,0,0,0-2.55-2.95,20.63,20.63,0,0,0-4.68-2.49c-1.92-.77-4.24-1.63-7-2.56q-4.87-1.55-9.54-3.4a29.9,29.9,0,0,1-8.32-4.92,22.88,22.88,0,0,1-5.89-7.75,27.42,27.42,0,0,1-2.24-11.84,34.15,34.15,0,0,1,2.37-13,28.86,28.86,0,0,1,6.66-10A29.53,29.53,0,0,1,435.15,421a39.83,39.83,0,0,1,13.89-2.3,61,61,0,0,1,15,2,66.49,66.49,0,0,1,15,5.83Z"/><path class="cls-2" d="M527.89,421.4v52.48c0,2.81.1,5.69.32,8.64a23.55,23.55,0,0,0,1.92,8,13.25,13.25,0,0,0,5,5.82q3.47,2.24,9.73,2.24t9.67-2.24a13.84,13.84,0,0,0,5-5.82,22.9,22.9,0,0,0,2-8q.32-4.42.32-8.64V421.4h25v55.93q0,22.53-10.31,32.9T544.91,520.6q-21.37,0-31.74-10.37t-10.37-32.9V421.4Z"/><path class="cls-2" d="M611.21,421.4h37.38q13.3,0,20.22,6.4t6.92,18.43a25,25,0,0,1-2.63,12.09,22,22,0,0,1-8,8.13,30.05,30.05,0,0,1,9.15,3.14,19.87,19.87,0,0,1,6.15,5.18,19.32,19.32,0,0,1,3.39,6.91,31.87,31.87,0,0,1,1,8.2,29.12,29.12,0,0,1-2.36,12,24.44,24.44,0,0,1-6.66,8.83,28.58,28.58,0,0,1-10.43,5.38,49.58,49.58,0,0,1-13.83,1.79H611.21Zm25.09,37.88h4.61q11.77,0,11.78-9.34t-11.78-9.34H636.3Zm0,39.17h5.51q9.47,0,13.57-2.43c2.72-1.62,4.09-4.23,4.09-7.81s-1.37-6.18-4.09-7.81S648.12,478,641.81,478H636.3Z"/><path class="cls-2" d="M729,421.4v96.51H703.89V421.4Z"/><path class="cls-3" d="M785.34,367.63c1.55-1.81,2.08-2.4,3.58-4.05,2.61,1.7,3.41,2.29,6.08,4.16.21.26.32.42.32.58s-.27.43-.64.43H778.94c7.2,2.45,7.2,2.45,7.2,3.09s-.48.7-2.56.91a58.68,58.68,0,0,1-6.4,5h9.5c1.6-2,2.08-2.56,3.68-4.32a68.19,68.19,0,0,1,5.86,4.43c.22.27.32.43.32.59s-.26.42-.58.42H756.6c-.16,8.91-.64,13.39-1.87,17.92a27.21,27.21,0,0,1-5.38,10.08c-.91,1-1.55,1.71-3.1,3.25l-.48-.32c3.84-7.52,4.86-13.81,4.86-29.75,0-2.51-.06-3.52-.22-6a74,74,0,0,1,6.72,3.73h6.78a2.54,2.54,0,0,1-1.07-1.65c-1.23-4-1.55-4.64-3.31-7.25l.11-.11h-5.55a24.25,24.25,0,0,0-3.73.37l-.48-2.13a22.84,22.84,0,0,0,4.21.64h14.56v-3a27.86,27.86,0,0,0-.21-3.78c7.62.53,8.58.69,8.58,1.49,0,.53-.26.69-2.18,1.44v3.84Zm-13.65,21v-3.36a39.51,39.51,0,0,0-.27-5.22c6.94.74,8.06,1,8.06,1.76,0,.42-.27.58-2.08,1.33v5.49h5.92c1.7-1.76,2.18-2.34,3.78-4.1,2.56,1.86,3.36,2.45,5.82,4.48.21.16.32.26.32.37,0,.27-.27.37-.75.37H777.4v7.47h5.12c1.28-1.5,2.5-2.94,3.73-4.32,2.4,2,3.2,2.56,5.6,4.69.21.16.32.32.32.43s-.21.32-.48.32H777.4v9h8.1c1.76-2.13,2.35-2.72,4.16-4.64,2.67,2,3.52,2.67,6.24,4.91.22.21.38.37.38.53s-.22.32-.64.32H758.15a20.61,20.61,0,0,0-3.47.37l-.43-2a21.87,21.87,0,0,0,3.9.48h13.54v-9H764.6a28,28,0,0,0-3.47.32l-.53-2a20.79,20.79,0,0,0,3.95.59h7.14v-7.47h-7.25a29.79,29.79,0,0,1-8.05,8.37l-.38-.42a40.35,40.35,0,0,0,6-16.64c1.49.37,2.67.69,3.41.85,3,.7,3.95,1.12,3.95,1.76s-.43.75-2,1.12c-1,1.87-1.38,2.56-2.18,3.84Zm-11-19.89c6,2.45,7.63,3.63,7.63,5.6,0,1.55-1,2.72-2.77,3.41H775a39.49,39.49,0,0,0,3.2-9Z"/><path class="cls-3" d="M768.49,423.47H756.71a20.41,20.41,0,0,0-3.15.21l-.48-1.76a19.74,19.74,0,0,0,3.63.43h25c1.49-1.6,2-2.13,3.41-3.63,2.56,1.66,3.31,2.19,5.76,4a.78.78,0,0,1,.27.43c0,.16-.22.32-.48.32H774v3.47h13.76c1.23-1.18,1.66-1.5,2.88-2.56,2.35,1.49,3,2,5.39,3.62.43.32.59.54.59.75,0,.59-.7.85-3,1.12-.32.21-1.55,1.07-3.79,2.56-.53.37-.64.43-1.76,1.23l-.53-.32a33,33,0,0,0,1-5.28H774v2.45c0,.05.06,2.24.16,6.61a1.44,1.44,0,0,1-.21.7c-.43.48-1.81.74-3.52.74-1.54,0-1.92-.16-2-1.12.1-5.28.1-5.49.1-6.61v-2.77h-14.4v.85c0,3.84-2.13,7.25-4.64,7.25-1.28,0-2.34-1.38-2.34-3.14a3,3,0,0,1,.64-2c.21-.21.21-.21,1.6-1,2-1,2.82-2.24,3.3-5l.54-.16a9.93,9.93,0,0,1,.69,2h14.61Zm18.88,42.77c.85-.75,1.12-1,1.92-1.6a2.83,2.83,0,0,1-.59.05,1.17,1.17,0,0,1-.9-.48c-.11-.1-.11-.1-.91-1.6a9.46,9.46,0,0,0-3.36-3.25,27.22,27.22,0,0,1-8.27,6.35l-.47-.48a27.59,27.59,0,0,0,6.07-11c5.44,1.44,6.46,1.81,6.46,2.35s-.54.69-2.35.85c-.37.64-.53.8-.85,1.28a18.7,18.7,0,0,1,3.68.48c2.45.58,3.41,1.33,3.41,2.66a3.43,3.43,0,0,1-.53,1.76,9.76,9.76,0,0,1,1.06-1c2.19,1.66,2.88,2.19,5,4.06.16.16.21.26.21.37a.38.38,0,0,1-.43.37H751.32a20.4,20.4,0,0,0-3.63.27l-.48-1.87a17.32,17.32,0,0,0,4.11.43h17.17V454H752.28a17,17,0,0,0-3,.21l-.43-1.81a10.83,10.83,0,0,0,3.47.48h34.5c1.28-1,1.76-1.39,2.62-2.14a3.91,3.91,0,0,1-.75.06,2.78,2.78,0,0,1-.59.05c-.42,0-.58-.16-.69-.64v-.69h-3.79v.9c-.05.38-.1.54-.32.59a11.71,11.71,0,0,1-2.66.32c-.91,0-1.28-.27-1.28-.85,0-3,0-4.54,0-6.24,0-2.35,0-2.51-.21-6.19,2.18,1.07,2.88,1.39,4.85,2.45h2.88c1-1.12,1.33-1.44,2.4-2.5a29.89,29.89,0,0,1,3.41,2.4c.43.37.59.53.59.74,0,.38-.27.59-1.44,1.28-.05.7-.05,1.18-.05,1.55s0,.48.1,2.56c.06,1.23.11,2.19.11,2.88s-.16.85-1,1.07a38.24,38.24,0,0,1,4.16,3c.11.1.16.16.16.26s-.16.22-.37.22H773.93v12.26Zm-37.28-1a26,26,0,0,0,7.42-11c5.44,1.44,6.45,1.81,6.45,2.3s-.59.74-1.49.74a3.09,3.09,0,0,1-.59,0c-.59.74-.85,1.06-1.23,1.49,4.7,1.17,5.87,1.92,5.87,3.84,0,1.6-1,2.93-2.24,2.93-.75,0-.91-.21-1.49-1.86a8.47,8.47,0,0,0-1.66-3c-.85-1-.85-1-1.06-1.28-2.62,2.77-5,4.32-9.66,6.45Zm8.75-24.8c1-1.06,1.28-1.38,2.24-2.4,1.33.91,1.71,1.23,3,2.19.32.27.42.43.42.64,0,.43-.26.69-1.17,1.33.16,5.6.16,5.6.27,8-.06.86-.22.91-3.63,1.07a.83.83,0,0,1-.85-.8v-1h-3.68v.9c-.06.38-.16.54-.38.64a11.35,11.35,0,0,1-2.66.32c-1,0-1.39-.26-1.39-1,.16-3.84.16-4.42.16-6.34,0-2.24,0-4.16-.16-6a32.19,32.19,0,0,1,4.64,2.4Zm-5.33-5.06a11.88,11.88,0,0,0,2.93.37h4.75c1.06-1.07,1.44-1.39,2.5-2.4,1.5,1.23,2,1.6,3.42,2.88a1,1,0,0,1,.16.32.36.36,0,0,1-.38.32H756.44a12.76,12.76,0,0,0-2.56.21Zm1.33-4.43a11,11,0,0,0,2.83.37h3.68c1-1,1.33-1.33,2.34-2.29,1.5,1.23,1.92,1.6,3.31,2.88a.46.46,0,0,1,.16.27c0,.16-.16.26-.37.26h-9.12a14.06,14.06,0,0,0-2.51.22Zm.59,17.39h3.68V441.6h-3.68Zm17.22-7.9,2.19-2.29c1.33.91,1.76,1.23,3,2.08.48.32.64.53.64.75s-.21.48-1.12,1.17c.06,2,.11,2.67.11,4.59,0,1.49,0,1.92.11,3.14,0,.48-.11.75-.38.86a10,10,0,0,1-3.14.47c-.54,0-.8-.21-.86-.74v-1H769.5v.9c0,.32-.1.43-.26.54a9.75,9.75,0,0,1-3.15.37c-.53,0-.69-.11-.8-.53,0-1.66,0-1.66.11-5.76v-1.34c0-1.38,0-1.38-.21-5.49,2,1,2.61,1.28,4.53,2.29Zm-3.15,7.9h3.68V441.6H769.5ZM775.16,431a9,9,0,0,0,2.66.37h4l2.3-2.4c1.44,1.28,1.86,1.66,3.14,2.83a.57.57,0,0,1,.22.43c0,.16-.16.26-.38.26h-9.28a8.71,8.71,0,0,0-2.24.27Zm8.9,4.8c1.12-1.17,1.44-1.49,2.51-2.56,1.71,1.28,2.19,1.71,3.73,3,.11.16.22.27.22.37s-.16.27-.48.27H778.25a10.68,10.68,0,0,0-2.56.27l-.37-1.71a12.93,12.93,0,0,0,2.93.32Zm-.48,12.59h3.79V441.6h-3.79Z"/></svg>