<?xml version="1.0" standalone="no"?>
<!DOCTYPE svg PUBLIC "-//W3C//DTD SVG 20010904//EN"
 "http://www.w3.org/TR/2001/REC-SVG-20010904/DTD/svg10.dtd">
<svg version="1.0" xmlns="http://www.w3.org/2000/svg"
 width="1080.000000pt" height="1080.000000pt" viewBox="0 0 1080.000000 1080.000000"
 preserveAspectRatio="xMidYMid meet">
<metadata>
Created by potrace 1.11, written by Peter Selinger 2001-2013
</metadata>
<g transform="translate(0.000000,1080.000000) scale(0.100000,-0.100000)"
fill="#000000" stroke="none">
<path d="M4481 7785 c-62 -15 -221 -93 -266 -130 -16 -13 -45 -37 -64 -52 -56
-46 -121 -114 -161 -167 -207 -276 -204 -654 5 -934 20 -26 96 -108 170 -182
l135 -135 -235 -235 -234 -234 -158 155 c-199 196 -289 252 -468 293 -88 19
-274 15 -360 -8 -422 -116 -674 -562 -550 -973 50 -165 132 -286 268 -396 218
-177 541 -216 803 -97 96 43 152 87 317 249 l148 145 234 -234 235 -235 -133
-135 c-184 -186 -192 -195 -249 -280 -97 -145 -129 -245 -124 -389 2 -53 6
-105 9 -116 70 -258 309 -519 553 -603 103 -36 154 -44 274 -43 150 0 288 43
417 128 32 21 123 102 203 181 79 79 148 144 151 145 4 1 81 -70 171 -158 174
-172 224 -213 333 -271 103 -55 189 -74 310 -70 173 7 315 76 494 241 267 247
335 609 175 933 -25 50 -50 92 -54 92 -5 0 -11 9 -15 19 -3 10 -74 87 -157
170 -150 151 -150 152 -132 173 22 23 376 378 423 422 l31 29 129 -130 c196
-197 262 -244 415 -294 484 -160 993 193 1011 701 4 118 -9 201 -47 306 -81
225 -272 406 -506 481 -109 35 -284 41 -399 13 -95 -22 -190 -64 -260 -111
-58 -40 -41 -24 -212 -194 l-142 -139 -234 234 -235 235 160 163 c268 273 339
399 346 613 4 112 -19 204 -80 315 -161 292 -439 474 -726 477 -113 0 -169 -8
-267 -42 -141 -48 -212 -99 -379 -268 l-151 -153 -159 158 c-212 210 -338 297
-484 335 -72 18 -210 20 -279 2z m258 -497 c29 -14 104 -79 198 -172 l152
-149 -233 -233 c-128 -129 -235 -234 -238 -234 -10 0 -241 235 -270 274 -54
74 -73 192 -47 289 17 67 74 142 142 191 107 76 190 85 296 34z m1593 -21
c112 -55 211 -197 211 -303 0 -91 -37 -149 -204 -319 l-148 -150 -236 236
-236 235 123 123 c68 68 137 135 155 148 89 68 231 81 335 30z m-663 -1290
c-114 -111 -221 -215 -237 -231 l-31 -29 -235 235 -235 235 237 232 236 232
236 -236 235 -235 -206 -203z m-810 -812 l-236 -236 -235 236 -236 236 236
235 236 235 235 -236 236 -235 -236 -235z m1787 242 c4 -4 -49 -64 -119 -135
-69 -70 -173 -176 -231 -235 l-107 -108 -235 236 -236 235 236 235 236 236
224 -228 c123 -125 228 -231 232 -236z m-3461 294 c47 -22 92 -59 199 -165
l139 -136 -144 -143 c-126 -123 -153 -145 -205 -164 -101 -38 -175 -36 -266 7
-86 40 -164 137 -182 225 -14 70 -14 86 -2 137 17 71 40 117 81 161 104 110
249 140 380 78z m4713 3 c194 -86 253 -352 115 -514 -31 -36 -120 -106 -133
-103 -3 0 -9 -1 -15 -3 -81 -28 -170 -22 -250 16 -48 23 -87 56 -188 160 -70
72 -127 135 -127 140 0 17 255 262 300 288 89 53 202 59 298 16z m-2259 -1319
l-235 -236 -236 235 -236 235 236 236 235 236 236 -235 236 -236 -236 -235z
m-783 -318 l233 -234 -142 -140 c-172 -168 -202 -186 -327 -187 -72 -1 -94 3
-140 25 -103 49 -205 176 -216 273 -8 60 17 142 60 197 32 42 284 299 294 299
2 0 109 -105 238 -233z m1472 99 c163 -165 186 -207 186 -336 0 -65 -5 -96
-22 -132 -48 -107 -177 -206 -282 -215 -110 -10 -163 22 -368 227 l-123 124
233 233 c128 128 236 233 239 233 3 0 65 -60 137 -134z"/>
</g>
</svg>
